<?xml version="1.0" encoding="UTF-8"?> <svg xmlns="http://www.w3.org/2000/svg" id="Calque_1" data-name="Calque 1" viewBox="0 0 100 40.51"><defs><style>.cls-1{fill:#6772e5;}.cls-2{fill:#667379;fill-rule:evenodd;}</style></defs><title>logo-gatling-Frontline</title><g id="Page-1"><g id="Design-UX-Enterprise"><g id="logo-gatling-Frontline"><path id="FRONTLINE" class="cls-1" d="M7.29,34.85H3.66v1.69H7v1.3H3.66v2.6H2V33.56H7.3Zm10.36,5.59-1.17-2H14.79v2H13.12V33.56h3.2c1.93,0,3,.87,3,2.39A2.26,2.26,0,0,1,18,38.17l1.57,2.27Zm-2.86-3.26h1.53c.92,0,1.45-.39,1.45-1.18s-.53-1.15-1.45-1.15H14.79ZM29,33.51a3.53,3.53,0,1,1,0,7,3.67,3.67,0,0,1-4-3.51C25.08,35,26.78,33.51,29,33.51Zm0,1.36A2.2,2.2,0,0,0,26.78,37a2.23,2.23,0,0,0,2.28,2.16A2.19,2.19,0,0,0,31.29,37,2.16,2.16,0,0,0,29.06,34.87Zm16.56,5.57H44.11L40.54,36v4.41H39V33.56h1.52L44.05,38V33.56h1.57Zm11.92-5.56H55.28v5.56H53.62V34.88H51.38V33.56h6.16ZM65,39.09h3.15v1.35H63.29V33.56H65Zm10.67,1.35H74V33.56h1.67Zm13.16,0H87.28L83.71,36v4.41H82.12V33.56h1.51L87.21,38V33.56h1.58Zm12.09-5.59H96.94v1.49h3.55v1.29H96.94v1.53H101v1.28H95.27V33.56h5.61Z" transform="translate(-1)"></path><path id="Fill-1-Copy-8" class="cls-2" d="M47.27,3.36H44.93V7.9h-2a.62.62,0,0,0-.62.62v2.57h2.66V25.35h3.38a.62.62,0,0,0,.62-.62V11.09h2.92V8.52a.62.62,0,0,0-.62-.62h-2.3V5A1.66,1.66,0,0,0,47.27,3.36Z" transform="translate(-1)"></path><path id="Fill-2-Copy-10" class="cls-2" d="M53.23,25.35h3.38a.62.62,0,0,0,.62-.62V5a1.65,1.65,0,0,0-1.65-1.66H53.23Z" transform="translate(-1)"></path><path id="Fill-3-Copy-8" class="cls-2" d="M60.2,25.35h3.38a.62.62,0,0,0,.62-.62V9.55A1.65,1.65,0,0,0,62.55,7.9H60.2Z" transform="translate(-1)"></path><path id="Fill-5-Copy-8" class="cls-2" d="M62.22,0A2.49,2.49,0,0,0,60.4.71a2.44,2.44,0,0,0-.7,1.81,2.37,2.37,0,0,0,.7,1.77A2.51,2.51,0,0,0,62.22,5,2.44,2.44,0,0,0,64,4.29a2.37,2.37,0,0,0,.71-1.77A2.45,2.45,0,0,0,64,.71,2.41,2.41,0,0,0,62.22,0" transform="translate(-1)"></path><path id="Fill-7-Copy-8" class="cls-2" d="M70.64,15.23a4.37,4.37,0,0,1,1.1-3.16,4,4,0,0,1,3-1.14A3.17,3.17,0,0,1,77.35,12a4.52,4.52,0,0,1,.86,2.91V25.35h3.38a.62.62,0,0,0,.62-.62V14.39a7.19,7.19,0,0,0-1.7-5A6.1,6.1,0,0,0,75.72,7.5a6.73,6.73,0,0,0-3.38.79,4.85,4.85,0,0,0-2,1.93V9.55A1.65,1.65,0,0,0,68.69,7.9h-2V25.35H70a.62.62,0,0,0,.62-.62Z" transform="translate(-1)"></path><path id="Combined-Shape-Copy-2" class="cls-2" d="M18.37,10.27A7.33,7.33,0,1,0,19,17.4H11.08a4.67,4.67,0,0,1,4.67-4.67h7.74a11.52,11.52,0,0,1,.13,1.67,11.31,11.31,0,1,1-.78-4.13Z" transform="translate(-1)"></path><path id="Combined-Shape-Copy-3" class="cls-2" d="M96,13.67a4.72,4.72,0,1,0-3.71,7.64,4.74,4.74,0,0,0,4.2-2.55H91.58a3.16,3.16,0,0,1,3.07-3.17h6.29a8.26,8.26,0,0,1,.06,1,8.7,8.7,0,1,1-.5-2.92Z" transform="translate(-1)"></path><path id="Fill-4-Copy-9" class="cls-2" d="M38.41,25.35h2.34a1.66,1.66,0,0,0,1.66-1.66V16.75l-4,1.06Z" transform="translate(-1)"></path><path id="Fill-12-Copy-8" class="cls-2" d="M33.7,21.53a4.78,4.78,0,1,1,4.77-4.78,4.78,4.78,0,0,1-4.77,4.78m0-13.48a8.71,8.71,0,1,0,8.71,8.7,8.7,8.7,0,0,0-8.71-8.7" transform="translate(-1)"></path></g></g></g></svg> 