<svg xmlns="http://www.w3.org/2000/svg" width="500" height="500" viewBox="0 0 500 500">
  <path d="M50.6314974,11 C61.1242731,10.895989 71.82727,14.3250126 79.6471406,21.3310243 L79.6471406,21.3310243 L80.1600139,21.7998009 L81.1401464,22.7488193 L250.428723,192.330314 L419.793257,22.672731 C427.560438,14.8921104 437.439218,11.1942517 447.415802,11.1420537 C457.972651,11.0868197 468.584076,14.9872968 477.213659,22.1793539 L477.213659,22.1793539 L477.806891,22.6817186 L478.31597,23.1258778 L478.888942,23.640695 C486.543527,30.7419421 489.889767,40.843502 489.998086,50.8441947 C490.101934,61.356814 486.678611,72.0801552 479.683542,79.914852 L479.683542,79.914852 L479.215565,80.428624 L478.268179,81.4104593 L308.98432,250.987228 L477.371362,419.665628 C485.162141,427.469887 488.877862,437.418238 488.930605,447.453052 C488.985949,457.982812 485.122192,468.560468 477.943071,477.124607 L477.943071,477.124607 L477.441683,477.713122 L476.998673,478.217622 L476.439121,478.83613 C469.349653,486.528781 459.250904,489.891346 449.253176,490 C438.7604,490.104011 428.057403,486.674987 420.237533,479.668976 L420.237533,479.668976 L419.724659,479.200199 L418.744527,478.251181 L250.428723,309.644143 L82.0369624,478.327269 C74.2474932,486.130216 64.31814,489.852302 54.302201,489.905128 C43.7921951,489.960559 33.234601,486.090316 24.6866173,478.899921 L24.6866173,478.899921 L24.0991317,478.397677 L23.5955178,477.953913 L22.9780871,477.393401 C15.2975577,470.290587 11.9407514,460.172767 11.8371343,450.155347 C11.7283966,439.642881 15.1517166,428.919723 22.1466771,421.085148 L22.1466771,421.085148 L22.6146542,420.571376 L23.5620401,419.589541 L191.873126,250.987228 L22.5133109,81.3343717 C14.7447875,73.5524065 11.0532561,63.6546736 11,53.659463 C10.9459983,43.0827508 14.8399375,32.4511334 22.0207352,23.8052201 L22.0207352,23.8052201 L22.5222439,23.2109483 L22.9656493,22.7009725 L23.4795881,22.126997 C30.5673692,14.4604631 40.6496923,11.1084881 50.6314974,11 Z"/>
</svg>
