<svg xmlns="http://www.w3.org/2000/svg" width="500" height="500" viewBox="0 0 500 500">
  <path d="M61.9580799,209 L124.826964,318.862342 L89.0518021,318.862342 C97.9587556,346.435222 113.339279,371.086798 133.531213,390.7006 C154.813496,411.373533 181.44254,426.448 211.463833,433.437086 C250.721252,442.873546 290.714077,437.528409 325.101366,420.376984 C359.333526,403.302933 388.010299,374.528763 404.854055,336.976883 C407.361582,331.353999 412.084592,327.224009 417.595015,325.15971 C423.137336,323.083461 429.437034,323.115387 434.976274,325.687072 C440.479503,328.244996 444.537125,333.059273 446.55822,338.692737 C448.572818,344.308091 448.542054,350.691202 446.048468,356.299527 C428.458264,395.92176 400.574436,427.855193 366.812481,450.003023 C332.379192,472.591247 291.829092,485 249.836868,485 C233.660831,485 216.678013,483.335095 200.498204,479.205251 C160.562405,469.708417 125.062022,449.090111 97.2209654,420.642057 C70.2383526,393.071163 50.4498915,358.144942 40.7980453,318.862342 L40.7980453,318.862342 L0,318.862342 L61.9580799,209 Z M154.256733,37.5667851 C197.949599,15.7153674 248.7583,8.86644293 298.558426,20.8461029 C338.427347,30.3014703 373.880238,50.8195805 401.810936,79.0335842 C429.010904,106.509447 449.076181,141.284411 459.13371,180.242285 L459.13371,180.242285 L500,180.242285 L438.012336,290 L375.113434,180.242285 L410.906544,180.242285 C401.995545,152.70062 386.60955,128.077025 366.411227,108.485056 C345.119055,87.8320755 318.477548,72.7723576 288.442345,65.7900268 C248.892975,56.3862299 208.79282,61.8685756 174.350601,79.0939255 C139.879271,96.3338345 111.075139,125.335468 94.1753719,162.958376 C91.6667044,168.575779 86.9419927,172.702452 81.4288679,174.764812 C75.8859078,176.838332 69.5854676,176.806447 64.0475018,174.239028 C58.2879944,171.050158 54.3525405,166.236865 52.4003589,160.808741 C50.4301315,155.330439 50.4686654,149.231763 52.9643582,143.633757 C74.3234834,95.9339282 110.764451,59.3178882 154.256733,37.5667851 Z"/>
</svg>
