<?xml version="1.0" encoding="UTF-8"?>
<svg xmlns="http://www.w3.org/2000/svg" viewBox="0 0 500 498.49">
  <path d="M210.6,210.21c-3.57,3.68-8.5,5.76-13.64,5.76-4.94,0-9.69-1.92-13.22-5.36l-.21-.21L38.02,64.91v96.14c0,6.81-3.64,13.1-9.54,16.5-5.88,3.39-13.13,3.41-19.01,.01-2.93-1.69-5.3-4.1-6.94-6.94-1.52-2.62-2.4-5.61-2.53-8.73v-.35S0,161.13,0,161.13V19.04C0,13.99,2,9.15,5.57,5.57S13.57,.18,18.38,.01h.3S161.14,0,161.14,0c3.39,0,6.65,.9,9.49,2.54,2.83,1.64,5.24,4,6.94,6.94,3.4,5.88,3.38,13.13-.01,19.01-3.3,5.71-9.29,9.3-15.85,9.52h-.29s-96.5,.01-96.5,.01L210.15,183.26c3.81,3.66,5.75,8.51,5.83,13.4,.07,4.87-1.72,9.77-5.37,13.55Zm79.19,.39c-3.67-3.57-5.76-8.5-5.76-13.64,0-4.94,1.92-9.69,5.36-13.22l.21-.21L435.09,38.02h-96.14c-6.81,0-13.1-3.64-16.5-9.54-3.39-5.88-3.41-13.13-.01-19.01,1.69-2.93,4.1-5.3,6.94-6.94,2.62-1.52,5.61-2.4,8.73-2.53h.35s.42-.02,.42-.02h142.08c5.05,0,9.9,2,13.47,5.57s5.4,7.99,5.56,12.8v.3s.01,142.46,.01,142.46c0,3.39-.9,6.65-2.54,9.49-1.64,2.83-4,5.24-6.94,6.94-5.88,3.4-13.13,3.38-19.01-.01-5.71-3.3-9.3-9.29-9.52-15.85v-.29s-.01-96.5-.01-96.5l-145.24,145.24c-3.66,3.81-8.51,5.75-13.4,5.83-4.87,.07-9.77-1.72-13.55-5.37Zm-.38,77.68c3.57-3.68,8.5-5.76,13.64-5.76,4.94,0,9.69,1.92,13.22,5.36l.21,.21,145.5,145.5v-96.14c0-6.81,3.64-13.1,9.54-16.5,5.88-3.39,13.13-3.41,19.01-.01,2.93,1.69,5.3,4.1,6.94,6.94,1.52,2.62,2.4,5.61,2.53,8.73v.35s.02,.42,.02,.42v142.08c0,5.05-2,9.9-5.57,13.47-3.41,3.41-7.99,5.4-12.8,5.56h-.3s-142.46,.01-142.46,.01c-3.39,0-6.65-.9-9.49-2.54-2.83-1.64-5.24-4-6.94-6.94-3.4-5.88-3.38-13.13,.01-19.01,3.3-5.71,9.29-9.3,15.85-9.52h.29s96.5-.01,96.5-.01l-145.24-145.24c-3.81-3.66-5.75-8.51-5.83-13.4-.07-4.87,1.72-9.77,5.37-13.55Zm-79.19-.38c3.68,3.57,5.76,8.5,5.76,13.64,0,4.94-1.92,9.69-5.36,13.22l-.21,.21L64.91,460.47h96.14c6.81,0,13.1,3.64,16.5,9.54,3.39,5.88,3.41,13.13,.01,19.01-1.69,2.93-4.1,5.3-6.94,6.94-2.62,1.52-5.61,2.4-8.73,2.53h-.35s-.42,.02-.42,.02H19.04c-5.05,0-9.9-2-13.47-5.57S.18,484.92,.01,480.11v-.3S0,337.36,0,337.36c0-3.39,.9-6.65,2.54-9.49,1.64-2.83,4-5.24,6.94-6.94,5.88-3.4,13.13-3.38,19.01,.01,5.71,3.3,9.3,9.29,9.52,15.85v.29s.01,96.5,.01,96.5l145.24-145.24c3.66-3.81,8.51-5.75,13.4-5.83,4.87-.07,9.77,1.72,13.55,5.37Z"/>
</svg>