<svg width="533" height="145" viewBox="0 0 533 145" fill="none" xmlns="http://www.w3.org/2000/svg">
<g clip-path="url(#clip0_9472_1352)">
<path d="M345.739 0H323.517V111.146H345.739V0Z" fill="black"/>
<path d="M298.722 11.1143H276.22V33.85H261.8V56.3575H276.22V88.9033C276.22 89.2547 276.231 89.5989 276.245 89.9466H276.22C276.22 101.655 285.823 111.143 297.66 111.143H317.891V89.9466H298.714V56.3575H317.891V33.85H298.714V11.1143H298.722Z" fill="black"/>
<path d="M373.591 33.8721H351.368V111.143H373.591V33.8721Z" fill="black"/>
<path d="M373.591 0H351.368V22.2286H373.591V0Z" fill="black"/>
<path d="M234.147 37.0889C228.453 34.0169 221.936 32.2744 215.007 32.2744C192.734 32.2744 174.688 50.2826 174.688 72.5003C174.688 94.718 192.734 112.722 215.007 112.722C221.933 112.722 228.453 110.98 234.147 107.908V111.147H256.178V33.8539H234.147V37.0962V37.0889ZM215.011 91.5952C204.441 91.5952 195.871 83.0494 195.871 72.5003C195.871 61.9511 204.441 53.4053 215.011 53.4053C225.58 53.4053 234.151 61.9584 234.151 72.5003C234.151 83.0422 225.584 91.5952 215.011 91.5952Z" fill="black"/>
<path d="M401.356 33.8786C389.127 33.8786 379.213 43.7141 379.213 55.8463V111.146H401.356V56.0021H423.662V33.875H401.356V33.8822V33.8786Z" fill="black"/>
<path d="M445.885 56.002H423.662V110.863H445.885V56.002Z" fill="black"/>
<path d="M510.969 37.0889C505.275 34.0169 498.759 32.2744 491.829 32.2744C469.556 32.2744 451.51 50.2826 451.51 72.5003C451.51 94.718 469.556 112.722 491.829 112.722C498.755 112.722 505.275 110.98 510.969 107.908V123.869H533V33.8539H510.969V37.0962V37.0889ZM491.829 91.5952C481.26 91.5952 472.689 83.0494 472.689 72.5003C472.689 61.9511 481.26 53.4053 491.829 53.4053C502.399 53.4053 510.969 61.9584 510.969 72.5003C510.969 83.0422 502.403 91.5952 491.829 91.5952Z" fill="black"/>
<path d="M146.326 45.7979H112.711V66.9251H146.326V45.7979Z" fill="black"/>
<path d="M169.066 66.9247V111.143H147.941V100.351C138.295 108.092 126.041 112.722 112.714 112.722H56.359C38.5664 112.722 22.7008 104.477 12.3737 91.595H68.7291C63.0856 84.5598 59.0938 76.1408 57.3479 66.9284H0.988882C0.340494 63.505 0 59.9729 0 56.3647C0 52.7566 0.340494 49.2209 0.988882 45.7975H57.3443C59.0902 36.5851 63.082 28.1661 68.7255 21.1309H12.3701C22.6936 8.24514 38.5628 0 56.3554 0H112.711C128.272 0 142.363 6.31065 152.559 16.5084L137.621 31.4482C131.246 25.0723 122.437 21.1309 112.711 21.1309C108.864 21.1309 105.162 21.7467 101.695 22.8879C90.9481 26.4236 82.4865 34.9875 79.0924 45.8011C78.0456 49.1376 77.4805 52.6878 77.4805 56.3684C77.4805 60.049 78.0456 63.5992 79.0924 66.932C82.4865 77.742 90.9481 86.3095 101.695 89.8416C105.162 90.9827 108.864 91.5986 112.711 91.5986C128.486 91.5986 141.838 81.2269 146.326 66.932H169.066V66.9247Z" fill="black"/>
<path d="M169.066 66.9247V111.143H147.941V100.351C138.295 108.092 126.041 112.722 112.714 112.722H56.359C38.5664 112.722 22.7008 104.477 12.3737 91.595H68.7291C63.0856 84.5598 59.0938 76.1408 57.3479 66.9284H0.988882C0.340494 63.505 0 59.9729 0 56.3647C0 52.7566 0.340494 49.2209 0.988882 45.7975H57.3443C59.0902 36.5851 63.082 28.1661 68.7255 21.1309H12.3701C22.6936 8.24514 38.5628 0 56.3554 0H112.711C128.272 0 142.363 6.31065 152.559 16.5084L137.621 31.4482C131.246 25.0723 122.437 21.1309 112.711 21.1309C108.864 21.1309 105.162 21.7467 101.695 22.8879C90.9481 26.4236 82.4865 34.9875 79.0924 45.8011C78.0456 49.1376 77.4805 52.6878 77.4805 56.3684C77.4805 60.049 78.0456 63.5992 79.0924 66.932C82.4865 77.742 90.9481 86.3095 101.695 89.8416C105.162 90.9827 108.864 91.5986 112.711 91.5986C128.486 91.5986 141.838 81.2269 146.326 66.932H169.066V66.9247Z" fill="url(#paint0_linear_9472_1352)"/>
<path d="M510.97 145H472.689V123.869H510.97V145Z" fill="black"/>
</g>
<defs>
<linearGradient id="paint0_linear_9472_1352" x1="169.022" y1="54.298" x2="0" y2="54.298" gradientUnits="userSpaceOnUse">
<stop/>
<stop offset="0.25"/>
<stop offset="0.5" stop-color="#4557DD"/>
<stop offset="0.75" stop-color="#F861EE"/>
<stop offset="1" stop-color="#FF763C"/>
</linearGradient>
<clipPath id="clip0_9472_1352">
<rect width="533" height="145" fill="white"/>
</clipPath>
</defs>
</svg>
