<svg id="Calque_1" data-name="Calque 1" xmlns="http://www.w3.org/2000/svg" viewBox="0 0 1861.49 393.99"><defs><style>.cls-1{fill:#6161d6;}.cls-2{fill:#24275e;fill-rule:evenodd;}</style></defs><path class="cls-1" d="M325.52,258.1a56.89,56.89,0,0,0,17.83-16.53h8.2a7.55,7.55,0,1,0,0-15.1h-.65a57.53,57.53,0,0,0,2.86-15h8.07a7.55,7.55,0,1,0,0-15.1H353.5a57.34,57.34,0,0,0-3.64-15h1.56a7.55,7.55,0,1,0,0-15.09H341.27a58,58,0,0,0-45.16-21.74H283.22a56.35,56.35,0,0,0-22.9,4.82h13.53A56.9,56.9,0,0,1,281,262.78c-1.69.13-3.38.26-5.2.26H217.24a69.85,69.85,0,0,0,23.82-21.47,4.42,4.42,0,0,0,1.3.13h51a7.55,7.55,0,0,0,0-15.1H249a72.32,72.32,0,0,0,3.9-15h58.44a7.55,7.55,0,0,0,0-15.1H253.55a70.93,70.93,0,0,0-2.86-15h42.95a7.55,7.55,0,0,0,0-15.09H244.05a69.7,69.7,0,0,0-59.87-34.23h-4.94a69.69,69.69,0,0,0-56.49,29.15A62.08,62.08,0,0,1,228,180.79H196.55a34.2,34.2,0,1,0,.65,41.91H164.66a27.18,27.18,0,0,1,27.2-27.2h39.7a56.74,56.74,0,0,1,.39,6.64A62.08,62.08,0,0,1,124.06,244a69.57,69.57,0,0,0,55.31,27.46h102c52.84,0,95.66-3.12,95.66-7.15C377.06,261.74,356.11,259.27,325.52,258.1Z"/><g id="Fill-1-Copy-8"><path class="cls-2" d="M690.64,141.08H677.81v24.85H666.69a3.34,3.34,0,0,0-3.4,3.41v14.07h14.52v78.18h18.5a3.34,3.34,0,0,0,3.4-3.4V183.52h16V169.45a3.34,3.34,0,0,0-3.4-3.4h-12.6V150.16A9.1,9.1,0,0,0,690.64,141.08Z"/></g><g id="Fill-2-Copy-10"><path class="cls-2" d="M723.32,261.7h18.49a3.34,3.34,0,0,0,3.41-3.4V150.16a9.11,9.11,0,0,0-9.08-9.08H723.32Z"/></g><g id="Fill-3-Copy-8"><path class="cls-2" d="M761.56,261.7h18.49a3.34,3.34,0,0,0,3.41-3.4V175.13a9.11,9.11,0,0,0-9.08-9.08H761.56Z"/></g><path id="Fill-5-Copy-8" class="cls-2" d="M772.56,122.7a13.23,13.23,0,0,0-13.84,13.84,12.66,12.66,0,0,0,3.86,9.65,13.77,13.77,0,0,0,10,3.74,13.43,13.43,0,0,0,9.76-3.74,12.84,12.84,0,0,0,3.86-9.65,13.42,13.42,0,0,0-3.86-10,12.92,12.92,0,0,0-9.76-3.86"/><g id="Fill-7-Copy-8"><path class="cls-2" d="M818.86,206.22c0-7.38,2-13.17,6-17.36s9.53-6.25,16.46-6.25q9.52,0,14.29,5.79c3.18,3.86,4.66,9.19,4.66,16v57.42h18.49a3.35,3.35,0,0,0,3.41-3.41V201.68c0-11.46-3.07-20.54-9.31-27.46s-15-10.33-26.32-10.33c-7.27,0-13.39,1.48-18.5,4.31a27.5,27.5,0,0,0-11,10.56v-3.63a9.1,9.1,0,0,0-9.08-9.08H796.73v95.77h18.5a3.34,3.34,0,0,0,3.4-3.41V206.22Z"/></g><g id="Combined-Shape-Copy-2"><path class="cls-2" d="M532,179a40.22,40.22,0,1,0,3.52,39.26H492.06a25.62,25.62,0,0,1,25.65-25.64h42.43a59.58,59.58,0,0,1,.68,9.19A62.1,62.1,0,1,1,556.51,179Z"/></g><g id="Combined-Shape-Copy-3"><path class="cls-2" d="M958,197.71a25.81,25.81,0,1,0,2.73,27.91H933.8a17.32,17.32,0,0,1,16.8-17.36h34.49a43.22,43.22,0,0,1,.34,5.45,47.65,47.65,0,1,1-2.72-16Z"/></g><path class="cls-2" d="M663.85,214.5A47.67,47.67,0,1,0,642,254.81v6.89h12.82a9.1,9.1,0,0,0,9.08-9.07V214.5Zm-47.77,26.33a26.22,26.22,0,1,1,26.22-26.22A26.23,26.23,0,0,1,616.08,240.83Z"/><path class="cls-1" d="M1023.08,261.48V141h74.54v11.88h-60.08v42h54.92v11.71h-54.92v43h60.08v11.88Z"/><path class="cls-1" d="M1110.71,261.48v-85.4h13.08l.86,15.33a30.92,30.92,0,0,1,11.88-12.74,33.47,33.47,0,0,1,17.56-4.65q15.15,0,24.19,9.21t9,28.32v49.93h-14.46V213.1q0-26.68-22-26.68a23.79,23.79,0,0,0-18.34,8q-7.32,8-7.31,22.81v44.25Z"/><path class="cls-1" d="M1234.32,261.48q-11.71,0-18.42-5.68t-6.72-20.49v-47h-14.8V176.08h14.8l1.9-20.48h12.56v20.48h25.14v12.23h-25.14v47q0,8.08,3.27,10.93t11.54,2.84h9v12.4Z"/><path class="cls-1" d="M1294.57,263.54a41.81,41.81,0,0,1-21.69-5.59A39.75,39.75,0,0,1,1258,242.37q-5.43-10-5.42-23.59,0-13.42,5.33-23.5a38.94,38.94,0,0,1,14.9-15.67,43.05,43.05,0,0,1,22.12-5.59q12.39,0,21.43,5.59a37.94,37.94,0,0,1,13.86,14.72A41.47,41.47,0,0,1,1335,214c0,1.27,0,2.53-.08,3.79s-.09,2.7-.09,4.3h-68q.51,9.81,4.56,16.27a26.85,26.85,0,0,0,23.15,13q9,0,15-4.13a23.7,23.7,0,0,0,8.78-11.19h14.29a38.52,38.52,0,0,1-13.17,19.71Q1309.73,263.54,1294.57,263.54Zm0-77.3a28.89,28.89,0,0,0-18.33,6.29q-8,6.28-9.21,18.33h53.71q-.51-11.54-7.92-18.07T1294.57,186.24Z"/><path class="cls-1" d="M1345.53,261.48v-85.4h13.09l1.2,16.36a31,31,0,0,1,12-13.43q8.09-5,20-5v15.15h-4a35.67,35.67,0,0,0-13.94,2.67,21.14,21.14,0,0,0-10.16,9q-3.79,6.36-3.79,17.56v43Z"/><path class="cls-1" d="M1399.42,299.35V176.08h13.08l1.38,14.12A40.25,40.25,0,0,1,1425.67,179q7.66-5,19.54-5,12.74,0,22.21,5.85a40.12,40.12,0,0,1,14.72,16,49.56,49.56,0,0,1,5.25,23.07,49,49,0,0,1-5.25,23,39.46,39.46,0,0,1-14.81,15.84q-9.55,5.76-22.29,5.76a39.5,39.5,0,0,1-18.68-4.3,29.75,29.75,0,0,1-12.48-12.05v52.16ZM1443.49,251a28.18,28.18,0,0,0,15.15-4A28.55,28.55,0,0,0,1469,235.65a39.44,39.44,0,0,0,0-33.74,28.55,28.55,0,0,0-10.33-11.28A28.59,28.59,0,0,0,1418,201.91a39.44,39.44,0,0,0,0,33.74A27.6,27.6,0,0,0,1443.49,251Z"/><path class="cls-1" d="M1498.92,261.48v-85.4H1512l1.2,16.36a31,31,0,0,1,12-13.43q8.1-5,20-5v15.15h-4a35.67,35.67,0,0,0-13.94,2.67,21.18,21.18,0,0,0-10.16,9q-3.78,6.36-3.79,17.56v43Z"/><path class="cls-1" d="M1561.59,157.15a9.71,9.71,0,0,1-10-10,9.23,9.23,0,0,1,2.84-6.89,10.55,10.55,0,0,1,14.21,0,9.08,9.08,0,0,1,2.92,6.89,9.56,9.56,0,0,1-2.92,7.15A9.81,9.81,0,0,1,1561.59,157.15Zm-7.23,104.33v-85.4h14.46v85.4Z"/><path class="cls-1" d="M1618.06,263.54q-15.33,0-25.48-7.74a30.17,30.17,0,0,1-11.88-21h14.8a20.4,20.4,0,0,0,7.15,11.62q5.76,4.91,15.58,4.91,9.12,0,13.43-3.87a12,12,0,0,0,4.3-9.22q0-7.74-5.59-10.32a73.84,73.84,0,0,0-15.76-4.65,89.14,89.14,0,0,1-13.77-4,31.14,31.14,0,0,1-11.53-7.32c-3.1-3.15-4.65-7.32-4.65-12.48a23,23,0,0,1,8.35-18.34q8.34-7.14,22.64-7.14,13.59,0,22.29,6.8T1648,200.19h-14.29a14.92,14.92,0,0,0-5.59-10.25q-4.74-3.69-12.66-3.7-7.74,0-12,3.27a10.36,10.36,0,0,0-4.22,8.61q0,5.16,5.42,8.09a58.13,58.13,0,0,0,14.72,5,130,130,0,0,1,15.07,4.21,28.54,28.54,0,0,1,11.7,7.41q4.56,4.9,4.57,14.2a23.34,23.34,0,0,1-8.7,19Q1633.21,263.55,1618.06,263.54Z"/><path class="cls-1" d="M1701.21,263.54a41.81,41.81,0,0,1-21.69-5.59,39.61,39.61,0,0,1-14.89-15.58q-5.43-10-5.43-23.59,0-13.42,5.34-23.5a38.91,38.91,0,0,1,14.89-15.67,43.09,43.09,0,0,1,22.13-5.59q12.39,0,21.43,5.59a38.09,38.09,0,0,1,13.86,14.72,41.47,41.47,0,0,1,4.82,19.63c0,1.27,0,2.53-.09,3.79s-.08,2.7-.08,4.3h-68q.52,9.81,4.56,16.27a26.85,26.85,0,0,0,23.16,13q9,0,15-4.13A23.7,23.7,0,0,0,1725,236h14.29a38.58,38.58,0,0,1-13.17,19.71Q1716.36,263.54,1701.21,263.54Zm0-77.3a28.85,28.85,0,0,0-18.33,6.29q-8,6.28-9.22,18.33h53.72q-.51-11.54-7.92-18.07T1701.21,186.24Z"/></svg>
